# xmcd CD database file
#
# Track frame offsets:
#	150
#	27450
#	54975
#	89775
#	112650
#	149400
#
# Disc length: 2440 seconds
#
# Revision: 0
# Processed by: cddbd v1.5.2PL0 Copyright (c) Steve Scherf et al.
# Submitted via: CDex 1.70beta3
#
DISCID=4d098606
DTITLE=Orquesta Libre and Ohata Yuichi - うたのかたち
DYEAR=2012
DGENRE=Jazz
TTITLE0=Cecilia
TTITLE1=ゴロワーズを吸ったことがあるかい
TTITLE2=Lili Marleen ～ including "the Blue March of Turkey"
TTITLE3=Les Champs-Elysees
TTITLE4=Purple Haze
TTITLE5=I Shall Be Released
EXTD=YEAR: 2012
EXTT0=
EXTT1=
EXTT2=
EXTT3=
EXTT4=
EXTT5=
PLAYORDER=
